# xmcd
#
# Track frame offsets: 
#        150
#        14251
#        29381
#        48577
#        59831
#        74850
#        85512
#        98483
#        112271
#        125319
#        141624
#        152128
#        167219
#        189908
#        202559
#
# Disc length: 2963 seconds
#
# Revision: 0
# Processed by: cddbd v1.5.2PL0 Copyright (c) Steve Scherf et al.
# Submitted via: ExactAudioCopy v0.99pb5
#
DISCID=d40b910f
DTITLE=Lost Country - Broken People
DYEAR=2001
DGENRE=Alternative
TTITLE0=Gimbal Lock
TTITLE1=Gunplay
TTITLE2=20 Silver Strings
TTITLE3=I Lied To You
TTITLE4=Powerball
TTITLE5=Daniel Prayed (Part II)
TTITLE6=Indecision
TTITLE7=Honky Tonkitis
TTITLE8=I Forgot More Than You'll Ever Know
TTITLE9=It's Not My Fault
TTITLE10=Pistol Boogie
TTITLE11=The One Rose (That's Left In My Heart)
TTITLE12=Disposable Love
TTITLE13=I'm Settin' You Free
TTITLE14=The Last Ride of The Western Limited
EXTD=
EXTT0=
EXTT1=
EXTT2=
EXTT3=
EXTT4=
EXTT5=
EXTT6=
EXTT7=
EXTT8=
EXTT9=
EXTT10=
EXTT11=
EXTT12=
EXTT13=
EXTT14=
PLAYORDER=
